<?xml version="1.0" standalone="no"?>
<!DOCTYPE svg PUBLIC "-//W3C//DTD SVG 20010904//EN"
 "http://www.w3.org/TR/2001/REC-SVG-20010904/DTD/svg10.dtd">
<svg version="1.0" xmlns="http://www.w3.org/2000/svg"
 width="80.000000pt" height="80.000000pt" viewBox="0 0 80.000000 80.000000"
 preserveAspectRatio="xMidYMid meet">
<metadata>
Created by potrace 1.16, written by Peter Selinger 2001-2019
</metadata>
<g transform="translate(0.000000,80.000000) scale(0.100000,-0.100000)"
fill="#000000" stroke="none">
<path d="M525 685 c-76 -30 -60 -32 21 -3 57 20 65 21 105 8 60 -20 89 -51 88
-92 l-1 -33 -8 30 c-7 28 -8 29 -9 5 -2 -25 -2 -25 -11 -2 -12 30 -15 28 -15
-10 0 -27 -4 -34 -23 -36 -17 -3 -25 4 -36 30 -8 18 -12 36 -10 40 13 21 -13
4 -42 -27 -33 -36 -48 -41 -74 -25 -12 8 -13 13 -3 27 7 10 20 32 28 48 8 17
10 22 3 12 -7 -10 -18 -26 -24 -34 -16 -24 -68 -9 -61 17 3 11 1 18 -4 14 -17
-10 -9 -34 16 -46 14 -6 25 -18 25 -25 0 -8 14 -20 30 -26 32 -12 37 -26 19
-44 -9 -9 -22 -5 -51 14 -45 30 -120 41 -171 24 -20 -7 -53 -32 -76 -59 -57
-66 -76 -85 -102 -103 -20 -14 -22 -19 -10 -33 9 -11 10 -16 2 -16 -6 0 -14
-7 -18 -16 -3 -9 -25 -35 -49 -59 -49 -48 -52 -58 -24 -78 l20 -14 -20 -18
c-40 -36 -16 -79 30 -55 16 9 25 9 33 1 18 -18 40 -13 62 14 18 23 23 24 52
13 24 -9 40 -9 70 0 34 12 43 10 87 -13 65 -33 120 -33 168 0 32 22 67 33 165
51 12 2 32 18 44 35 27 38 18 59 -30 72 -31 7 -81 50 -81 68 0 4 14 20 30 36
17 15 30 36 30 45 0 9 8 21 18 27 12 7 17 23 18 53 1 24 4 60 9 80 10 50 -12
83 -71 109 -57 24 -75 23 -149 -6z m107 -115 c18 -32 54 -40 76 -18 6 6 14 9
18 5 12 -12 -7 -24 -61 -37 -46 -11 -59 -11 -80 0 -31 16 -31 27 -3 57 27 29
30 29 50 -7z m-196 -35 c38 -15 38 -40 1 -30 -20 5 -20 5 -4 -5 10 -7 28 -9
40 -6 12 3 29 1 37 -4 12 -7 11 -12 -5 -30 -21 -23 -61 -21 -81 6 -10 13 -12
13 -18 -1 -6 -16 -66 -18 -66 -2 0 5 15 6 33 3 l32 -5 -32 11 c-25 8 -43 7
-82 -6 -60 -19 -61 -19 -61 -3 0 17 48 63 80 76 37 14 86 13 126 -4z m148 -40
c25 -19 57 -19 101 -1 33 14 45 8 45 -23 0 -23 -102 -42 -115 -21 -3 6 -16 10
-29 10 -25 0 -46 17 -46 37 0 17 20 16 44 -2z m-165 -72 c31 -14 58 -14 109 2
13 4 22 3 22 -3 0 -19 -68 -34 -120 -27 -47 7 -50 6 -60 -20 -17 -44 -12 -100
10 -120 30 -27 125 -33 151 -9 11 10 17 24 15 31 -8 21 5 73 18 73 22 0 66
-25 63 -35 -2 -5 -16 -14 -31 -20 -21 -7 -29 -6 -37 5 -7 11 -8 8 -3 -12 7
-34 -9 -64 -46 -83 -35 -18 -63 -18 -115 0 -34 12 -37 12 -21 0 56 -42 168
-21 189 35 7 18 19 30 29 30 10 0 26 8 37 19 11 11 24 15 31 11 22 -14 1 -44
-52 -75 -28 -16 -61 -36 -72 -42 -29 -18 -90 -16 -153 4 -44 14 -60 15 -85 5
-25 -9 -36 -9 -52 1 -12 7 -43 14 -70 15 -64 2 -84 9 -97 34 -16 30 -2 35 39
12 27 -15 55 -21 102 -22 l65 0 -37 19 c-30 15 -42 17 -62 8 -20 -10 -30 -8
-56 8 -26 17 -29 22 -16 32 10 8 16 9 21 1 8 -13 48 -13 62 1 8 8 18 6 37 -6
14 -10 33 -15 41 -11 8 3 15 1 15 -4 0 -6 5 -10 10 -10 7 0 7 7 -1 21 -9 17
-8 23 2 30 36 22 50 0 28 -44 -10 -22 -10 -22 6 -2 13 15 15 33 11 74 -2 30
-10 59 -15 64 -11 11 -15 9 -97 -30 -25 -12 -36 -12 -53 -3 -21 11 -21 11 8
36 16 13 35 22 43 19 8 -3 25 -1 39 4 30 12 103 4 148 -16z m207 -4 c3 -6 19
-9 35 -5 16 3 29 3 29 -1 0 -8 -62 -63 -71 -63 -13 0 -24 24 -24 53 0 27 18
37 31 16z m-460 -56 c21 -14 31 -14 58 -5 50 18 57 16 50 -15 -9 -37 -11 -38
-29 -23 -13 11 -23 11 -56 0 -31 -10 -42 -11 -52 -1 -9 9 -6 13 12 18 24 6 24
6 3 14 -12 5 -22 13 -22 19 0 14 7 13 36 -7z m268 -47 c31 -13 66 -49 66 -69
0 -14 -96 -2 -115 13 -8 7 -15 25 -15 41 0 33 13 36 64 15z m303 -56 c19 0 14
-40 -7 -51 -31 -16 -106 -47 -130 -54 -14 -5 -41 -18 -60 -31 -46 -32 -103
-31 -166 1 -44 23 -53 24 -86 14 -42 -14 -101 -4 -77 13 11 7 9 9 -8 5 -12 -3
-27 1 -34 9 -18 22 14 28 51 9 23 -12 45 -15 84 -10 37 5 67 2 103 -10 48 -16
55 -16 105 0 82 25 162 68 173 93 6 12 16 20 23 17 8 -3 20 -5 29 -5z m-657
-60 c6 0 8 -4 5 -10 -8 -13 -18 -13 -40 4 -17 12 -17 16 -5 31 13 16 14 15 22
-4 4 -12 12 -21 18 -21z m60 -48 c30 -25 18 -42 -28 -40 -20 0 -47 -3 -59 -7
-19 -6 -23 -4 -23 13 0 24 35 52 66 52 12 0 32 -8 44 -18z"/>
</g>
</svg>
